<svg xmlns="http://www.w3.org/2000/svg" width="16.035" height="16.035" viewBox="0 0 16.035 16.035"><g transform="translate(-0.001 -11.032)"><path d="M14.666,3.534l-1.085.733A6.71,6.71,0,1,1,7.364,1.341v2.33H8.673V0H8.018a8.015,8.015,0,1,0,6.648,3.534Z" transform="translate(0 11.032)" fill="#757575"/><path d="M135.721,120.243a.632.632,0,0,0-.522.989l2.868,3.849a1.058,1.058,0,0,0,.1.14,1.012,1.012,0,1,0,1.524-1.331.875.875,0,0,0-.109-.106l-3.449-3.388A.635.635,0,0,0,135.721,120.243Z" transform="translate(-130.609 -104.945)" fill="#757575"/></g></svg>