<svg xmlns="http://www.w3.org/2000/svg" width="14.171" height="18.849" viewBox="0 0 14.171 18.849"><g transform="translate(-63.531)"><path d="M69.11.3a.619.619,0,0,0-.62.62v3.1h-1V.859a.859.859,0,1,0-1.717,0V4.02h-1V.92a.62.62,0,0,0-1.24,0V4.878h.012a2.384,2.384,0,0,0,1.9,1.707V17.419a1.192,1.192,0,0,0,2.384,0V6.556c.932-.266,1.8-.829,1.9-1.679h.01V.92A.62.62,0,0,0,69.11.3Z" fill="#757575"/><path d="M317.815,11.69c-.692-.235-1.737-.375-1.737.687V28.7a1.088,1.088,0,0,0,1.125,1.249,1.049,1.049,0,0,0,1.124-1.125V22H320.2c.563,0,.75-.688.75-1.188V17.376C320.952,13.982,319.279,12.188,317.815,11.69Z" transform="translate(-243.25 -11.1)" fill="#757575"/></g></svg>