<svg xmlns="http://www.w3.org/2000/svg" width="76.805" height="74.128" viewBox="0 0 76.805 74.128"><g transform="matrix(1, -0.017, 0.017, 1, 0.058, 1.254)"><g transform="translate(0.492 0.526)"><ellipse cx="34.712" cy="34.557" rx="34.712" ry="34.557" transform="translate(5.575 2.886)" fill="#a8d3f7"/><path d="M33.854,70.106c.107.214.856,1.658.923,1.783a.357.357,0,0,0,.325.214,6.077,6.077,0,0,0,1.738-.829c.08-.053.254-.187.348-.187.174,0,.446.4.446.548,0,.267-1.725.976-2.019,1.083-.107.04-.214.08-.214.227a1.757,1.757,0,0,0,.227.481A17.5,17.5,0,0,0,37.782,76.7a.446.446,0,0,1,.187.348.686.686,0,0,1-.535.548,1.34,1.34,0,0,1-.562-.308A6.53,6.53,0,0,0,33.6,76.169a1.64,1.64,0,0,0-1.819,1.565c0,1.663,2.18,2.01,3.455,2.01.321,0,.575-.027.7-.027s.187.04.187.174c0,.709-.446.629-.522.629-1.73,0-4.551-.522-4.551-2.746a2.355,2.355,0,0,1,2.581-2.3,5.692,5.692,0,0,1,2.585.722.446.446,0,0,0,.187.067.076.076,0,0,0,.08-.067.535.535,0,0,0-.12-.227c-.495-.722-1.15-1.859-1.582-2.648a.374.374,0,0,0-.348-.241.664.664,0,0,0-.174.04,18.405,18.405,0,0,1-3.37.535c-.348,0-.446-.6-.446-.655s.08-.147.655-.147a13.773,13.773,0,0,0,2.782-.374c.12-.04.254-.08.254-.227a6.419,6.419,0,0,0-.588-1.11,6.837,6.837,0,0,0-.548-.829.348.348,0,0,1-.12-.214c0-.16.629-.227.709-.227A.309.309,0,0,1,33.854,70.106Z" transform="translate(-17.113 -39.172)" fill="#172a88"/><path d="M33.307,70.039a12.512,12.512,0,0,0,.923,1.783c.446.637,1.462,0,1.961-.3.147-.08.294-.165.446-.254s.2-.156.334.027c.29.374-.446.6-.735.727-.406.192-1.565.41-1.337,1.016a7.846,7.846,0,0,0,.611,1.083c.276.481.557.954.86,1.417.259.392.6.722.86,1.105.192.276.169.713-.218.535-.263-.116-.5-.334-.758-.472a5.661,5.661,0,0,0-3.245-.776,1.894,1.894,0,0,0-1.783,1.547c-.187,1.828,2.14,2.26,3.5,2.282.169,0,.584-.094.718,0a.366.366,0,0,1,0,.513c-.085.053-.357,0-.446,0a5.283,5.283,0,0,1-.686-.058,4.556,4.556,0,0,1-2.625-1.074,2.171,2.171,0,0,1-.294-2.764c.829-1.195,2.474-.985,3.646-.508.343.138.744.472,1.128.383s.254-.357.076-.624c-.334-.5-.646-1.025-.949-1.556-.205-.352-.415-1.052-.811-1.226s-.847.085-1.19.156c-.553.12-1.114.218-1.676.29a3.566,3.566,0,0,1-.785.08c-.285-.027-.33-.223-.406-.472-.027-.094.031-.125-.116,0,.094-.067.4,0,.508,0,.214,0,.446-.022.642-.04a14.086,14.086,0,0,0,1.725-.241c.3-.067.945-.134.892-.566-.027-.334-.4-.753-.566-1.043s-.308-.544-.437-.785c-.085-.147-.223-.232-.027-.316s.205,0,.285.147.624,0,.513-.174c-.227-.383-.669-.3-1.048-.2a.852.852,0,0,0-.446.214c-.12.21.134.41.245.566.183.254.339.53.5.8a3.294,3.294,0,0,1,.423.718c.053.227,0,.218-.218.29a3.481,3.481,0,0,1-.522.1c-.4.071-.8.12-1.2.156-.522.045-2-.183-1.591.731.21.446.615.41,1.052.374.624-.058,1.248-.156,1.863-.272.325-.062.651-.129.976-.214.178-.045.214-.067.348.067a2.915,2.915,0,0,1,.29.517c.218.4.446.789.682,1.181.089.147.793,1.056.718,1.208l.174-.134c.178-.058-.308-.232-.41-.281-.21-.089-.423-.174-.637-.245a5.188,5.188,0,0,0-1.471-.267,3.5,3.5,0,0,0-1.97.495,2.34,2.34,0,0,0-.579,3.45,5.075,5.075,0,0,0,3.521,1.337,2.074,2.074,0,0,0,1.266-.107.709.709,0,0,0,.29-.611c0-.308-.183-.339-.446-.343-1.221-.027-3.352.094-3.811-1.422a1.433,1.433,0,0,1,1.6-1.832,6.044,6.044,0,0,1,2.924,1.061c.481.321.981.508,1.422,0s-.388-1.132-.7-1.574c-.486-.7-.892-1.44-1.337-2.18-.125-.218-.486-.646-.254-.838a3.414,3.414,0,0,1,.731-.3c.325-.147,1.279-.446,1.373-.86.049-.218-.227-.553-.406-.642a.74.74,0,0,0-.7.107c-.308.183-.6.383-.918.548a1.948,1.948,0,0,1-.553.259c-.2,0-.25-.067-.348-.21a15.056,15.056,0,0,1-.865-1.663C33.744,69.713,33.2,69.843,33.307,70.039Z" transform="translate(-16.819 -39.02)" fill="#172a88"/><path d="M59.851,79.455A12.572,12.572,0,0,0,61.1,79.04a11.552,11.552,0,0,1,3.838-.963,2.461,2.461,0,0,1,1.837.709,2.581,2.581,0,0,1,.669,1.7,3.093,3.093,0,0,1-.6,1.725A4.743,4.743,0,0,1,64.9,83.618a7.841,7.841,0,0,1-1.993.575c-.294,0-.446-.446-.446-.548s.187-.2.321-.218a6.183,6.183,0,0,0,1.845-.446A2.969,2.969,0,0,0,66.689,80.5a1.783,1.783,0,0,0-.842-1.511,1.908,1.908,0,0,0-.981-.214,11.287,11.287,0,0,0-4.266,1.3,1.627,1.627,0,0,1-.535.2c-.2,0-.495-.388-.495-.588S59.73,79.481,59.851,79.455Z" transform="translate(-33.28 -43.728)" fill="#172a88"/><path d="M59.444,79.392c1.163-.308,2.251-.842,3.419-1.146a3.509,3.509,0,0,1,3.187.312,2.5,2.5,0,0,1,.526,3.049,4.125,4.125,0,0,1-2.452,1.837,6.717,6.717,0,0,1-1.1.321c-.214.04-.374.04-.5-.165a.709.709,0,0,1-.089-.245c0-.071,0-.062-.058,0l.29-.031a6.067,6.067,0,0,0,2.675-1.012,2.822,2.822,0,0,0,1.337-2.05,1.783,1.783,0,0,0-1.44-1.841,6.325,6.325,0,0,0-3.12.508c-.526.192-1.039.406-1.542.642-.187.085-.539.343-.753.272-.089-.027-.178-.156-.227-.232a.727.727,0,0,1-.085-.152c0-.116-.022-.138-.089-.067.174-.049.49-.41.143-.316s-.673.3-.535.664a.629.629,0,0,0,.842.419c.477-.165.932-.446,1.4-.633a12.723,12.723,0,0,1,1.738-.6,4.27,4.27,0,0,1,1.85-.16,1.627,1.627,0,0,1,1.195,1.2c.312,1.23-.722,2.229-1.756,2.648a5.452,5.452,0,0,1-1.146.339,6.906,6.906,0,0,0-.807.125c-.33.107-.548.348-.41.691s.446.4.82.33a8.3,8.3,0,0,0,1.306-.388,5.8,5.8,0,0,0,2.492-1.569,2.9,2.9,0,0,0,.522-3.12c-.6-1.261-1.952-1.475-3.209-1.293a36.962,36.962,0,0,0-4.306,1.337C59.444,79.12,59.114,79.481,59.444,79.392Z" transform="translate(-32.962 -43.505)" fill="#172a88"/><path d="M95.335,71.3c0,.16-.321.294-.508.4-.272.16-3.414,3.049-3.99,3.544-.067.053-.241.187-.241.267a.062.062,0,0,0,.067.053c.053,0,2.782-.682,3.12-.762.892-.214,2.229-.535,3.094-.842a.477.477,0,0,1,.134-.027c.2,0,.214.495.214.642,0,.267-.174.254-.535.294a7.074,7.074,0,0,0-2.719.976c-.856.522-1.993,1.524-1.993,2.608a1.635,1.635,0,0,0,1.163,1.368,5.8,5.8,0,0,0,1.582.294c.12,0,.267.027.267.174,0,.053-.094.6-.446.6a5.479,5.479,0,0,1-1.511-.334A2.409,2.409,0,0,1,91.2,78.5a3.692,3.692,0,0,1,1.805-2.715c.04-.027.147-.08.147-.147s-.067-.067-.107-.067a1.632,1.632,0,0,0-.348.08,37.216,37.216,0,0,0-4.293,1.364.473.473,0,0,1-.147.04c-.16,0-.4-.4-.4-.629,0-.12.053-.12.749-.308a1.244,1.244,0,0,0,.495-.254c1.672-1.337,3.183-2.835,4.734-4.279.053-.053.147-.12.147-.2s-.04-.08-.094-.08c-.134,0-2.474.588-2.741.669a1.52,1.52,0,0,1-.334.08c-.2,0-.334-.495-.334-.655,0-.267.2-.227.415-.241a20.368,20.368,0,0,0,3.464-.7.767.767,0,0,1,.285-.12C94.894,70.34,95.335,71.1,95.335,71.3Z" transform="translate(-48.982 -39.433)" fill="#172a88"/><path d="M94.83,70.98c-.08.245-.446.339-.629.49s-.446.379-.655.571c-.62.544-1.23,1.1-1.841,1.654l-1.382,1.23c-.223.205-.348.343-.049.548a.5.5,0,0,0,.446.076c1.489-.267,3-.718,4.458-1.1a10.02,10.02,0,0,0,1.614-.477l-.147-.125a1.154,1.154,0,0,1,.045.276.659.659,0,0,1,0,.165c-.085.312-.566.25-.851.3a6.8,6.8,0,0,0-3.209,1.538c-.807.7-1.663,1.912-.829,2.911a2.831,2.831,0,0,0,1.132.789,4.5,4.5,0,0,0,.834.218,4.27,4.27,0,0,1,.892.107l-.236-.214a.553.553,0,0,1-.267.611c-.25.107-.735-.085-.994-.152a2.654,2.654,0,0,1-1.863-1.27,2.229,2.229,0,0,1,.379-2.108,4.592,4.592,0,0,1,.678-.758c.232-.214.6-.374.771-.633v-.107c-.446-.6-1.364-.08-1.908.076s-1.132.325-1.689.513c-.281.089-.557.187-.834.285s-.66.37-.793.183c-.227-.321.334-.357.5-.4a3.192,3.192,0,0,0,1.221-.749c.918-.762,1.783-1.574,2.675-2.394l1.15-1.132c.2-.192.664-.446.41-.744s-.7-.147-1.043-.067c-.615.143-1.23.3-1.841.446a2.31,2.31,0,0,0-.236.062c-.156.053-.165.1-.245,0-.259-.406.37-.446.615-.446a22.87,22.87,0,0,0,2.26-.41,6.962,6.962,0,0,0,.847-.223c.045,0,.3-.147.25-.156.134.027.334.535.352.66s.495.379.477.254a1.845,1.845,0,0,0-.735-1.128c-.361-.245-.584-.027-.945.08a15.156,15.156,0,0,1-3.218.6c-.236,0-.388.027-.419.29a1.065,1.065,0,0,0,.227.655c.281.361.579.3.972.2.446-.125.927-.236,1.391-.352l.8-.192a1.052,1.052,0,0,1,.446-.08l-.348-.263c.062.143-.584.629-.686.722l-.842.8c-.53.49-1.07.985-1.6,1.5a15.107,15.107,0,0,1-1.783,1.507,3.12,3.12,0,0,1-.825.29.446.446,0,0,0-.312.129c-.134.205.125.584.254.731a.678.678,0,0,0,.892.192c.74-.267,1.475-.535,2.229-.762l1.128-.325a3.334,3.334,0,0,1,1.088-.272l-.343-.218c-.067-.094-1.137.958-1.217,1.056a3.027,3.027,0,0,0-.727,1.618,2.341,2.341,0,0,0,1.337,2.1,5.037,5.037,0,0,0,1.11.49,2.736,2.736,0,0,0,1.453.236.7.7,0,0,0,.366-.633c-.031-.267-.321-.415-.553-.446-.7-.16-1.44-.04-2.042-.539a1.39,1.39,0,0,1-.071-1.881A5.764,5.764,0,0,1,95.32,75.21a7.251,7.251,0,0,1,.972-.259A3.29,3.29,0,0,0,97,74.845c.294-.134.245-.544.138-.807a.691.691,0,0,0-.5-.446,1.609,1.609,0,0,0-.637.165c-.316.1-.633.187-.949.272-.892.245-1.828.446-2.737.682l-1.284.316-.508.125c-.089,0-.339.031-.218.071l.294.25c-.04-.085.851-.8.923-.865l1.5-1.337c.446-.4.892-.8,1.337-1.2.125-.107.245-.223.379-.316s.5-.209.579-.446C95.342,71.123,94.866,70.868,94.83,70.98Z" transform="translate(-48.709 -39.267)" fill="#172a88"/><path d="M127.415,71.534c0,.12-.12.147-.2.147-.321,0-.361.04-1.177.7-.735.588-1.471,1.23-2.18,1.872-.495.446-.949.8-.949,1.19,0,.481.669,1.2.99,1.551a36.764,36.764,0,0,0,2.875,2.652c.281.241.535.415.535.588a.776.776,0,0,1-.629.575c-.134,0-.214-.107-.334-.254a20.3,20.3,0,0,0-1.6-1.716c-.7-.682-1.377-1.391-2.019-2.126a1.872,1.872,0,0,1-.6-1.27,1.36,1.36,0,0,1,.281-.842,16.343,16.343,0,0,1,1.578-1.431,24.656,24.656,0,0,0,2.447-2.229.245.245,0,0,1,.174-.107,2.255,2.255,0,0,1,.816.7Z" transform="translate(-67.992 -39.704)" fill="#172a88"/><path d="M126.882,71.113c-.027.071-.406.111-.486.152a4.2,4.2,0,0,0-.722.535c-.914.727-1.783,1.493-2.675,2.282-.557.553-.8,1-.357,1.7a9.878,9.878,0,0,0,1.716,1.917c.383.37.78.727,1.181,1.079.21.183.419.366.633.544.111.1.236.187.348.29s.3.2.169.446c-.3.566-.892-.4-1.105-.624-.37-.392-.758-.762-1.141-1.141s-.785-.789-1.163-1.2a6.557,6.557,0,0,1-1.083-1.279c-.513-.976.419-1.676,1.065-2.229s1.337-1.092,1.957-1.663a6.148,6.148,0,0,0,.99-.981c.129-.192.089-.205.285-.053.089.067.343.232.374.334.071.223.571.374.446.053s-.834-1.048-1.239-.949c-.312.08-.669.624-.892.838-.388.366-.793.718-1.2,1.065a21.223,21.223,0,0,0-2.024,1.783,1.751,1.751,0,0,0,.1,2.345,34.29,34.29,0,0,0,2.643,2.732c.446.446.865,1.016,1.337,1.462a.615.615,0,0,0,.865.036c.963-.7-.517-1.524-1.012-1.957a17.763,17.763,0,0,1-2.7-2.675c-.178-.241-.415-.553-.308-.865a2.077,2.077,0,0,1,.646-.709c.562-.513,1.128-1.021,1.707-1.507a8.915,8.915,0,0,1,1.471-1.163c.245-.129.557-.031.669-.33C127.439,71.162,126.98,70.859,126.882,71.113Z" transform="translate(-67.676 -39.421)" fill="#172a88"/><path d="M47.4,70.651a35.912,35.912,0,0,1-32.7-62.779,36.168,36.168,0,0,1,46.341,2.209,35.782,35.782,0,0,1,5.779,45.835" transform="translate(-0.492 -0.526)" fill="none" stroke="#231815" stroke-miterlimit="10" stroke-width="1"/><line x2="15.601" y2="14.71" transform="translate(52.044 57.067)" fill="none" stroke="#231815" stroke-miterlimit="10" stroke-width="1"/></g></g></svg>