<svg xmlns="http://www.w3.org/2000/svg" width="75.66" height="73.253" viewBox="0 0 75.66 73.253"><g transform="translate(0.058 -0.022)"><g transform="translate(0.492 0.526)"><ellipse cx="34.367" cy="34.56" rx="34.367" ry="34.56" transform="translate(6.377 3.3)" fill="#b2d3b7"/><path d="M34.345,70.14c.122.245.979,1.9,1.055,2.039a.408.408,0,0,0,.372.245,6.95,6.95,0,0,0,1.988-.948c.092-.061.291-.214.4-.214.2,0,.51.459.51.627,0,.306-1.973,1.117-2.309,1.239-.122.046-.245.092-.245.26a2.009,2.009,0,0,0,.26.551,20.016,20.016,0,0,0,2.462,3.747.51.51,0,0,1,.214.4.785.785,0,0,1-.612.627,1.532,1.532,0,0,1-.642-.352,7.469,7.469,0,0,0-3.742-1.285,1.876,1.876,0,0,0-2.08,1.789c0,1.9,2.493,2.3,3.951,2.3.367,0,.658-.031.8-.031s.214.046.214.2c0,.811-.51.719-.6.719-1.978,0-5.205-.6-5.205-3.141a2.694,2.694,0,0,1,2.952-2.631,6.51,6.51,0,0,1,2.957.826.51.51,0,0,0,.214.076.087.087,0,0,0,.092-.076.612.612,0,0,0-.138-.26c-.566-.826-1.315-2.126-1.81-3.028a.428.428,0,0,0-.4-.275.759.759,0,0,0-.2.046,21.05,21.05,0,0,1-3.854.612c-.4,0-.51-.688-.51-.749s.092-.168.749-.168a15.753,15.753,0,0,0,3.181-.428c.138-.046.291-.092.291-.26a7.341,7.341,0,0,0-.673-1.269,7.82,7.82,0,0,0-.627-.948.4.4,0,0,1-.138-.245c0-.184.719-.26.811-.26A.354.354,0,0,1,34.345,70.14Z" transform="translate(-17.305 -39.727)" fill="#006934"/><path d="M33.8,70.1a14.311,14.311,0,0,0,1.055,2.039c.51.729,1.672,0,2.243-.347.168-.092.336-.189.51-.291s.224-.178.382.031c.331.428-.51.688-.841.831-.464.219-1.789.469-1.529,1.162a8.973,8.973,0,0,0,.7,1.239c.316.551.637,1.091.984,1.621.3.449.683.826.984,1.264.219.316.194.816-.25.612-.3-.133-.571-.382-.867-.54a6.475,6.475,0,0,0-3.712-.887,2.166,2.166,0,0,0-2.039,1.769c-.214,2.09,2.447,2.585,4,2.61.194,0,.668-.107.821,0a.418.418,0,0,1,0,.586c-.1.061-.408,0-.51,0a6.043,6.043,0,0,1-.785-.066,5.21,5.21,0,0,1-3-1.229,2.483,2.483,0,0,1-.336-3.161c.948-1.366,2.83-1.127,4.17-.581.393.158.851.54,1.29.438s.291-.408.087-.714c-.382-.576-.739-1.173-1.086-1.779-.235-.4-.474-1.2-.928-1.4s-.969.1-1.361.178c-.632.138-1.275.25-1.917.331a4.079,4.079,0,0,1-.9.092c-.326-.031-.377-.255-.464-.54-.031-.107.036-.143-.133,0,.107-.076.454,0,.581,0,.245,0,.51-.025.734-.046a16.111,16.111,0,0,0,1.973-.275c.347-.076,1.081-.153,1.02-.647-.031-.382-.454-.862-.647-1.193s-.352-.622-.5-.9c-.1-.168-.255-.265-.031-.362s.235,0,.326.168.714,0,.586-.2c-.26-.438-.765-.342-1.2-.224a.975.975,0,0,0-.51.245c-.138.24.153.469.28.647.209.291.387.607.571.913a3.767,3.767,0,0,1,.484.821c.061.26,0,.25-.25.331a3.981,3.981,0,0,1-.6.117c-.459.082-.918.138-1.377.178-.6.051-2.289-.209-1.82.836.24.51.7.469,1.2.428.714-.066,1.427-.178,2.131-.311.372-.071.744-.148,1.117-.245.2-.051.245-.076.4.076a3.334,3.334,0,0,1,.331.591c.25.454.51.9.78,1.351.1.168.907,1.208.821,1.382l.2-.153c.2-.066-.352-.265-.469-.321-.24-.1-.484-.2-.729-.28A5.935,5.935,0,0,0,34.091,76a4.007,4.007,0,0,0-2.253.566,2.677,2.677,0,0,0-.663,3.946A5.8,5.8,0,0,0,35.2,82.038a2.372,2.372,0,0,0,1.448-.122.811.811,0,0,0,.331-.7c0-.352-.209-.387-.51-.393-1.4-.031-3.834.107-4.359-1.626a1.639,1.639,0,0,1,1.83-2.1,6.913,6.913,0,0,1,3.344,1.213c.551.367,1.122.581,1.626,0s-.444-1.295-.8-1.8c-.556-.8-1.02-1.647-1.529-2.493-.143-.25-.556-.739-.291-.958a3.906,3.906,0,0,1,.836-.347c.372-.168,1.463-.51,1.57-.984.056-.25-.26-.632-.464-.734a.846.846,0,0,0-.8.122c-.352.209-.688.438-1.05.627a2.228,2.228,0,0,1-.632.3c-.224,0-.286-.076-.4-.24a17.222,17.222,0,0,1-.989-1.9C34.295,69.73,33.678,69.878,33.8,70.1Z" transform="translate(-17.023 -39.595)" fill="#006934"/><path d="M59.891,79.653a14.381,14.381,0,0,0,1.428-.474,13.212,13.212,0,0,1,4.39-1.1,2.814,2.814,0,0,1,2.1.811,2.952,2.952,0,0,1,.765,1.942,3.538,3.538,0,0,1-.688,1.973,5.425,5.425,0,0,1-2.223,1.611,8.968,8.968,0,0,1-2.279.658c-.336,0-.51-.51-.51-.627s.214-.229.367-.25a7.072,7.072,0,0,0,2.111-.51c1.167-.51,2.36-1.458,2.36-2.835a2.039,2.039,0,0,0-.964-1.728,2.182,2.182,0,0,0-1.122-.245,12.909,12.909,0,0,0-4.879,1.484,1.861,1.861,0,0,1-.612.229c-.229,0-.566-.444-.566-.673S59.754,79.683,59.891,79.653Z" transform="translate(-33.68 -43.967)" fill="#006934"/><path d="M59.508,79.639c1.331-.352,2.575-.964,3.91-1.31,1.178-.3,2.641-.51,3.645.357a2.86,2.86,0,0,1,.6,3.487,4.718,4.718,0,0,1-2.8,2.1,7.682,7.682,0,0,1-1.254.367c-.245.046-.428.046-.576-.189a.811.811,0,0,1-.1-.28c0-.082,0-.071-.066,0l.331-.036a6.939,6.939,0,0,0,3.059-1.157,3.227,3.227,0,0,0,1.529-2.345,2.039,2.039,0,0,0-1.647-2.106,7.235,7.235,0,0,0-3.569.581c-.6.219-1.188.464-1.764.734-.214.1-.617.393-.862.311-.1-.031-.2-.178-.26-.265a.831.831,0,0,1-.1-.173c0-.133-.025-.158-.1-.076.2-.056.561-.469.163-.362s-.77.342-.612.76a.719.719,0,0,0,.964.479c.546-.189,1.066-.51,1.606-.724a14.55,14.55,0,0,1,1.988-.688,4.884,4.884,0,0,1,2.116-.184A1.861,1.861,0,0,1,67.074,80.3c.357,1.407-.826,2.549-2.009,3.028a6.235,6.235,0,0,1-1.31.387,7.9,7.9,0,0,0-.923.143c-.377.122-.627.4-.469.79s.51.454.938.377a9.488,9.488,0,0,0,1.494-.444,6.628,6.628,0,0,0,2.85-1.795,3.319,3.319,0,0,0,.6-3.569c-.688-1.443-2.233-1.687-3.671-1.478a42.276,42.276,0,0,0-4.925,1.529C59.508,79.328,59.131,79.741,59.508,79.639Z" transform="translate(-33.387 -43.769)" fill="#006934"/><path d="M96.41,71.441c0,.184-.367.336-.581.459-.311.184-3.905,3.487-4.563,4.053-.076.061-.275.214-.275.306a.071.071,0,0,0,.076.061c.061,0,3.181-.78,3.569-.872,1.02-.245,2.549-.612,3.538-.964a.546.546,0,0,1,.153-.031c.229,0,.245.566.245.734,0,.306-.2.291-.612.336a8.091,8.091,0,0,0-3.11,1.117c-.979.6-2.279,1.744-2.279,2.982A1.87,1.87,0,0,0,93.9,81.189a6.627,6.627,0,0,0,1.81.336c.138,0,.306.031.306.2,0,.061-.107.688-.51.688a6.265,6.265,0,0,1-1.728-.382,2.756,2.756,0,0,1-2.1-2.36,4.222,4.222,0,0,1,2.065-3.1c.046-.031.168-.092.168-.168s-.076-.076-.122-.076a1.865,1.865,0,0,0-.4.092,42.562,42.562,0,0,0-4.91,1.56.54.54,0,0,1-.168.046c-.184,0-.459-.459-.459-.719,0-.138.061-.138.856-.352a1.422,1.422,0,0,0,.566-.291c1.912-1.529,3.64-3.242,5.414-4.894.061-.061.168-.138.168-.229s-.046-.092-.107-.092c-.153,0-2.83.673-3.135.765a1.739,1.739,0,0,1-.382.092c-.229,0-.382-.566-.382-.749,0-.306.229-.26.474-.275a23.293,23.293,0,0,0,3.961-.8.877.877,0,0,1,.326-.138C95.9,70.34,96.41,71.212,96.41,71.441Z" transform="translate(-49.715 -39.985)" fill="#006934"/><path d="M95.9,71.115c-.092.28-.51.387-.719.561s-.51.433-.749.653c-.709.622-1.407,1.259-2.106,1.891l-1.58,1.407c-.255.235-.4.393-.056.627a.571.571,0,0,0,.51.087c1.7-.306,3.426-.821,5.1-1.259a11.461,11.461,0,0,0,1.846-.546l-.168-.143a1.321,1.321,0,0,1,.051.316.754.754,0,0,1,0,.189c-.1.357-.647.285-.974.347A7.775,7.775,0,0,0,93.384,77c-.923.8-1.9,2.187-.948,3.329a3.237,3.237,0,0,0,1.295.9,5.143,5.143,0,0,0,.953.25,4.884,4.884,0,0,1,1.02.122l-.27-.245a.632.632,0,0,1-.306.7c-.285.122-.841-.1-1.137-.173a3.035,3.035,0,0,1-2.131-1.453,2.549,2.549,0,0,1,.433-2.411,5.252,5.252,0,0,1,.775-.867c.265-.245.688-.428.882-.724V76.31c-.51-.683-1.56-.092-2.182.087s-1.295.372-1.932.586c-.321.1-.637.214-.953.326s-.755.423-.907.209c-.26-.367.382-.408.571-.459a3.65,3.65,0,0,0,1.4-.857c1.05-.872,2.039-1.8,3.059-2.738l1.315-1.295c.229-.219.76-.51.469-.851s-.8-.168-1.193-.076c-.7.163-1.407.342-2.106.51a2.641,2.641,0,0,0-.27.071c-.178.061-.189.117-.28,0-.3-.464.423-.51.7-.51a26.153,26.153,0,0,0,2.585-.469,7.964,7.964,0,0,0,.969-.255c.051,0,.342-.168.285-.178.153.031.382.612.4.755s.566.433.546.291a2.111,2.111,0,0,0-.841-1.29c-.413-.28-.668-.031-1.081.092a17.334,17.334,0,0,1-3.681.683c-.27,0-.444.031-.479.331a1.218,1.218,0,0,0,.26.749c.321.413.663.347,1.111.224.51-.143,1.06-.27,1.591-.4l.913-.219a1.2,1.2,0,0,1,.51-.092l-.4-.3c.071.163-.668.719-.785.826l-.964.913c-.607.561-1.224,1.127-1.835,1.713a17.28,17.28,0,0,1-2.039,1.723,3.569,3.569,0,0,1-.943.331.51.51,0,0,0-.357.148c-.153.235.143.668.291.836a.775.775,0,0,0,1.02.219c.846-.306,1.688-.612,2.549-.872l1.29-.372a3.814,3.814,0,0,1,1.244-.311l-.393-.25c-.076-.107-1.3,1.1-1.392,1.208a3.462,3.462,0,0,0-.831,1.851A2.677,2.677,0,0,0,92.716,81.6a5.761,5.761,0,0,0,1.269.561,3.13,3.13,0,0,0,1.662.27.8.8,0,0,0,.418-.724c-.036-.306-.367-.474-.632-.51-.8-.184-1.647-.046-2.335-.617a1.589,1.589,0,0,1-.082-2.151,6.592,6.592,0,0,1,3.446-2.478,8.294,8.294,0,0,1,1.111-.3,3.762,3.762,0,0,0,.811-.122c.336-.153.28-.622.158-.923a.79.79,0,0,0-.576-.51,1.841,1.841,0,0,0-.729.189c-.362.112-.724.214-1.086.311-1.02.28-2.09.51-3.13.78l-1.468.362-.581.143c-.1,0-.387.036-.25.082l.336.285c-.046-.1.974-.913,1.055-.989l1.713-1.529c.51-.459,1.02-.918,1.529-1.371.143-.122.28-.255.433-.362s.576-.24.663-.51C96.489,71.278,95.943,70.988,95.9,71.115Z" transform="translate(-49.484 -39.842)" fill="#006934"/><path d="M128.177,71.636c0,.138-.138.168-.229.168-.367,0-.413.046-1.346.8-.841.673-1.682,1.407-2.493,2.141-.566.51-1.086.918-1.086,1.361,0,.551.765,1.377,1.132,1.774a42.051,42.051,0,0,0,3.288,3.033c.321.275.612.474.612.673a.887.887,0,0,1-.719.658c-.153,0-.245-.122-.382-.291a23.211,23.211,0,0,0-1.835-1.963c-.8-.78-1.575-1.591-2.309-2.432a2.141,2.141,0,0,1-.688-1.453,1.555,1.555,0,0,1,.321-.964,18.694,18.694,0,0,1,1.8-1.637,28.2,28.2,0,0,0,2.8-2.549.28.28,0,0,1,.2-.122,2.58,2.58,0,0,1,.933.806Z" transform="translate(-68.497 -40.213)" fill="#006934"/><path d="M127.648,71.227c-.031.082-.464.127-.556.173a4.808,4.808,0,0,0-.826.612c-1.045.831-2.039,1.708-3.059,2.61-.637.632-.918,1.142-.408,1.948a11.3,11.3,0,0,0,1.963,2.192c.438.423.892.831,1.351,1.234.24.209.479.418.724.622.127.112.27.214.4.331s.342.224.194.51c-.347.647-1.02-.454-1.264-.714-.423-.449-.867-.872-1.305-1.305s-.9-.9-1.331-1.371a7.5,7.5,0,0,1-1.239-1.463c-.586-1.117.479-1.917,1.218-2.549s1.529-1.249,2.238-1.9a7.031,7.031,0,0,0,1.132-1.122c.148-.219.1-.235.326-.061.1.076.393.265.428.382.082.255.653.428.51.061s-.953-1.2-1.417-1.086c-.357.092-.765.714-1.02.958-.444.418-.907.821-1.371,1.218a24.271,24.271,0,0,0-2.315,2.039,2,2,0,0,0,.112,2.682,39.218,39.218,0,0,0,3.023,3.125c.51.51.989,1.162,1.529,1.672a.7.7,0,0,0,.989.041c1.1-.806-.591-1.744-1.157-2.238a20.317,20.317,0,0,1-3.084-3.059c-.2-.275-.474-.632-.352-.989a2.376,2.376,0,0,1,.739-.811c.642-.586,1.29-1.167,1.953-1.723a10.2,10.2,0,0,1,1.682-1.331c.28-.148.637-.036.765-.377C128.285,71.283,127.76,70.937,127.648,71.227Z" transform="translate(-68.244 -39.963)" fill="#006934"/><path d="M47.2,71.032a35.821,35.821,0,0,1-42.67-17.8A36.215,36.215,0,0,1,14.633,7.912a35.75,35.75,0,0,1,46.144,2.221,36.231,36.231,0,0,1,5.754,46.084" transform="translate(-0.492 -0.526)" fill="none" stroke="#231815" stroke-miterlimit="10" stroke-width="1"/><line x2="17.844" y2="16.824" transform="translate(48.854 55.341)" fill="none" stroke="#231815" stroke-miterlimit="10" stroke-width="1"/></g></g></svg>