<svg xmlns="http://www.w3.org/2000/svg" width="300" height="58.503" viewBox="0 0 300 58.503"><path d="M396.34,753.359,372.2,713.449l-.835-17.411L395.5,736.381" transform="translate(-353.414 -696.038)" fill="#09345a"/><path d="M411.285,736.381V696.038h16.953v57.321h-16.12" transform="translate(-367.55 -696.038)" fill="#09345a"/><path d="M360.527,714.327v39.91H343.572V696.909h16.12" transform="translate(-343.572 -696.347)" fill="#09345a"/><path d="M582.762,759.167l-19.9-30.458v30.458H548.882V711.789h13.291l19.9,28.958V711.789h13.979v47.378Z" transform="translate(-413.762 -700.698)" fill="#202020"/><path d="M494.827,715.614q6.68,6.384,6.68,18.59t-6.68,18.59q-6.68,6.384-18.938,6.384t-18.9-6.348q-6.652-6.348-6.652-18.626t6.652-18.624q6.652-6.349,18.9-6.35T494.827,715.614Zm-26.374,8.2a12.2,12.2,0,0,0-2.549,8.137v4.49a12.2,12.2,0,0,0,2.549,8.137,9.189,9.189,0,0,0,7.438,3.017,9.289,9.289,0,0,0,7.473-3.017,12.1,12.1,0,0,0,2.582-8.137v-4.49a12.1,12.1,0,0,0-2.582-8.137,9.293,9.293,0,0,0-7.473-3.017,9.19,9.19,0,0,0-7.438,3.023Z" transform="translate(-380.054 -700.711)" fill="#202020"/><path d="M678.223,712.989a12.667,12.667,0,0,1,5.992,11.118v.841H669.961v-.282a4.586,4.586,0,0,0-1.514-3.507,6.6,6.6,0,0,0-4.614-1.4,9.618,9.618,0,0,0-4.649.911,2.624,2.624,0,0,0-1.619,2.245,2.993,2.993,0,0,0,2.2,2.807,41.782,41.782,0,0,0,7.093,1.894,75.428,75.428,0,0,1,9.4,2.5,15.992,15.992,0,0,1,6.438,4.244,11.494,11.494,0,0,1,2.823,8q0,8.559-5.682,12.7a25.234,25.234,0,0,1-15.183,4.139q-11.087,0-17.251-3.788T641.243,742h14.392a5.455,5.455,0,0,0,1.859,4.875,10.7,10.7,0,0,0,5.776,1.227,15.354,15.354,0,0,0,4.786-.631,2.517,2.517,0,0,0,1.894-2.6,2.841,2.841,0,0,0-2.1-2.63,41.43,41.43,0,0,0-6.851-1.86,77.386,77.386,0,0,1-9.573-2.63,16.133,16.133,0,0,1-6.61-4.524,12.367,12.367,0,0,1-2.823-8.559,12.779,12.779,0,0,1,6.025-11.68,28.385,28.385,0,0,1,15.253-3.745A27.217,27.217,0,0,1,678.223,712.989Z" transform="translate(-445.382 -700.716)" fill="#202020"/><path d="M757.027,723.909v35.258H745.949V723.909H729.125v-12.12H775.4v12.12Z" transform="translate(-475.401 -700.698)" fill="#202020"/></svg>